# Blender v2.93.3 OBJ File: 'Layouts.blend'
# www.blender.org
mtllib TestStudio.mtl
o Floor_Cube
v -22.724632 0.181515 18.000002
v -22.724632 -0.181515 18.000002
v -22.724636 0.181515 -17.999998
v -22.724636 -0.181515 -17.999998
v 22.724636 0.181515 17.999998
v 22.724636 -0.181515 17.999998
v 22.724632 0.181515 -18.000002
v 22.724632 -0.181515 -18.000002
vt 0.625000 0.500000
vt 0.875000 0.500000
vt 0.875000 0.750000
vt 0.625000 0.750000
vt 0.375000 0.750000
vt 0.625000 1.000000
vt 0.375000 1.000000
vt 0.375000 0.000000
vt 0.625000 0.000000
vt 0.625000 0.250000
vt 0.375000 0.250000
vt 0.125000 0.500000
vt 0.375000 0.500000
vt 0.125000 0.750000
vn 0.0000 1.0000 0.0000
vn -0.0000 0.0000 -1.0000
vn 1.0000 0.0000 -0.0000
vn 0.0000 -1.0000 0.0000
vn -1.0000 0.0000 0.0000
vn 0.0000 0.0000 1.0000
usemtl Material
s off
f 1/1/1 5/2/1 7/3/1 3/4/1
f 4/5/2 3/4/2 7/6/2 8/7/2
f 8/8/3 7/9/3 5/10/3 6/11/3
f 6/12/4 2/13/4 4/5/4 8/14/4
f 2/13/5 1/1/5 3/4/5 4/5/5
f 6/11/6 5/10/6 1/1/6 2/13/6
o Wall_Cube.001
v 5.910461 0.035676 -1.100537
v 5.910461 4.132039 -1.100537
v 5.910461 0.035676 -18.014763
v 5.910461 4.132039 -18.014763
v 6.949045 0.035676 -1.100537
v 6.949045 4.132039 -1.100537
v 6.949045 0.035676 -18.014763
v 6.949045 4.132039 -18.014763
vt 0.375000 0.000000
vt 0.625000 0.000000
vt 0.625000 0.250000
vt 0.375000 0.250000
vt 0.625000 0.500000
vt 0.375000 0.500000
vt 0.625000 0.750000
vt 0.375000 0.750000
vt 0.625000 1.000000
vt 0.375000 1.000000
vt 0.125000 0.500000
vt 0.125000 0.750000
vt 0.875000 0.500000
vt 0.875000 0.750000
vn -1.0000 0.0000 0.0000
vn 0.0000 0.0000 -1.0000
vn 1.0000 0.0000 0.0000
vn 0.0000 0.0000 1.0000
vn 0.0000 -1.0000 0.0000
vn 0.0000 1.0000 0.0000
usemtl None
s off
f 9/15/7 10/16/7 12/17/7 11/18/7
f 11/18/8 12/17/8 16/19/8 15/20/8
f 15/20/9 16/19/9 14/21/9 13/22/9
f 13/22/10 14/21/10 10/23/10 9/24/10
f 11/25/11 15/20/11 13/22/11 9/26/11
f 16/19/12 12/27/12 10/28/12 14/21/12
o Wall.001_Cube.002
v 13.276918 0.035676 -1.080153
v 13.276918 4.132039 -1.080153
v 6.955631 0.035676 -1.080153
v 6.955631 4.132039 -1.080153
v 13.276918 0.035676 -2.118736
v 13.276918 4.132039 -2.118736
v 6.955631 0.035676 -2.118736
v 6.955631 4.132039 -2.118736
vt 0.375000 0.000000
vt 0.625000 0.000000
vt 0.625000 0.250000
vt 0.375000 0.250000
vt 0.625000 0.500000
vt 0.375000 0.500000
vt 0.625000 0.750000
vt 0.375000 0.750000
vt 0.625000 1.000000
vt 0.375000 1.000000
vt 0.125000 0.500000
vt 0.125000 0.750000
vt 0.875000 0.500000
vt 0.875000 0.750000
vn 0.0000 0.0000 1.0000
vn -1.0000 0.0000 0.0000
vn -0.0000 0.0000 -1.0000
vn 1.0000 0.0000 0.0000
vn 0.0000 -1.0000 0.0000
vn 0.0000 1.0000 0.0000
usemtl None
s off
f 17/29/13 18/30/13 20/31/13 19/32/13
f 19/32/14 20/31/14 24/33/14 23/34/14
f 23/34/15 24/33/15 22/35/15 21/36/15
f 21/36/16 22/35/16 18/37/16 17/38/16
f 19/39/17 23/34/17 21/36/17 17/40/17
f 24/33/18 20/41/18 18/42/18 22/35/18
o Wall.002_Cube.003
v -14.190004 0.035676 -4.750319
v -14.190004 4.132039 -4.750319
v -22.689287 0.035676 -4.750319
v -22.689287 4.132039 -4.750319
v -14.190004 0.035676 -5.788902
v -14.190004 4.132039 -5.788902
v -22.689287 0.035676 -5.788902
v -22.689287 4.132039 -5.788902
vt 0.375000 0.000000
vt 0.625000 0.000000
vt 0.625000 0.250000
vt 0.375000 0.250000
vt 0.625000 0.500000
vt 0.375000 0.500000
vt 0.625000 0.750000
vt 0.375000 0.750000
vt 0.625000 1.000000
vt 0.375000 1.000000
vt 0.125000 0.500000
vt 0.125000 0.750000
vt 0.875000 0.500000
vt 0.875000 0.750000
vn 0.0000 0.0000 1.0000
vn -1.0000 0.0000 0.0000
vn -0.0000 0.0000 -1.0000
vn 1.0000 0.0000 0.0000
vn 0.0000 -1.0000 0.0000
vn 0.0000 1.0000 0.0000
usemtl None
s off
f 25/43/19 26/44/19 28/45/19 27/46/19
f 27/46/20 28/45/20 32/47/20 31/48/20
f 31/48/21 32/47/21 30/49/21 29/50/21
f 29/50/22 30/49/22 26/51/22 25/52/22
f 27/53/23 31/48/23 29/50/23 25/54/23
f 32/47/24 28/55/24 26/56/24 30/49/24
o Wall.003_Cube.004
v -8.818540 0.035676 -5.835745
v -8.818540 4.132038 -5.835745
v -5.378775 0.035676 -5.835746
v -5.378775 4.132038 -5.835746
v -8.818540 0.035676 -4.797162
v -8.818540 4.132038 -4.797162
v -5.378775 0.035676 -4.797163
v -5.378775 4.132038 -4.797163
vt 0.375000 0.000000
vt 0.625000 0.000000
vt 0.625000 0.250000
vt 0.375000 0.250000
vt 0.625000 0.500000
vt 0.375000 0.500000
vt 0.625000 0.750000
vt 0.375000 0.750000
vt 0.625000 1.000000
vt 0.375000 1.000000
vt 0.125000 0.500000
vt 0.125000 0.750000
vt 0.875000 0.500000
vt 0.875000 0.750000
vn -0.0000 0.0000 -1.0000
vn 1.0000 0.0000 0.0000
vn 0.0000 0.0000 1.0000
vn -1.0000 0.0000 0.0000
vn 0.0000 -1.0000 0.0000
vn 0.0000 1.0000 0.0000
usemtl None
s off
f 33/57/25 34/58/25 36/59/25 35/60/25
f 35/60/26 36/59/26 40/61/26 39/62/26
f 39/62/27 40/61/27 38/63/27 37/64/27
f 37/64/28 38/63/28 34/65/28 33/66/28
f 35/67/29 39/62/29 37/64/29 33/68/29
f 40/61/30 36/69/30 34/70/30 38/63/30
o Wall.004_Cube.005
v -5.397881 0.035676 -16.919029
v -5.397881 4.132039 -16.919029
v -5.397880 0.035676 -5.885255
v -5.397880 4.132039 -5.885255
v -6.436465 0.035676 -16.919029
v -6.436465 4.132039 -16.919029
v -6.436464 0.035676 -5.885255
v -6.436464 4.132039 -5.885255
vt 0.375000 0.000000
vt 0.625000 0.000000
vt 0.625000 0.250000
vt 0.375000 0.250000
vt 0.625000 0.500000
vt 0.375000 0.500000
vt 0.625000 0.750000
vt 0.375000 0.750000
vt 0.625000 1.000000
vt 0.375000 1.000000
vt 0.125000 0.500000
vt 0.125000 0.750000
vt 0.875000 0.500000
vt 0.875000 0.750000
vn 1.0000 0.0000 -0.0000
vn 0.0000 0.0000 1.0000
vn -1.0000 0.0000 0.0000
vn 0.0000 0.0000 -1.0000
vn 0.0000 -1.0000 0.0000
vn 0.0000 1.0000 0.0000
usemtl None
s off
f 41/71/31 42/72/31 44/73/31 43/74/31
f 43/74/32 44/73/32 48/75/32 47/76/32
f 47/76/33 48/75/33 46/77/33 45/78/33
f 45/78/34 46/77/34 42/79/34 41/80/34
f 43/81/35 47/76/35 45/78/35 41/82/35
f 48/75/36 44/83/36 42/84/36 46/77/36
o Wall.005_Cube.006
v 5.734912 0.035676 17.961336
v 5.734912 4.132039 17.961336
v 5.734912 0.035676 6.927561
v 5.734912 4.132039 6.927561
v 6.773496 0.035676 17.961336
v 6.773496 4.132039 17.961336
v 6.773496 0.035676 6.927561
v 6.773496 4.132039 6.927561
vt 0.375000 0.000000
vt 0.625000 0.000000
vt 0.625000 0.250000
vt 0.375000 0.250000
vt 0.625000 0.500000
vt 0.375000 0.500000
vt 0.625000 0.750000
vt 0.375000 0.750000
vt 0.625000 1.000000
vt 0.375000 1.000000
vt 0.125000 0.500000
vt 0.125000 0.750000
vt 0.875000 0.500000
vt 0.875000 0.750000
vn -1.0000 0.0000 0.0000
vn 0.0000 0.0000 -1.0000
vn 1.0000 0.0000 0.0000
vn 0.0000 0.0000 1.0000
vn 0.0000 -1.0000 0.0000
vn 0.0000 1.0000 0.0000
usemtl None
s off
f 49/85/37 50/86/37 52/87/37 51/88/37
f 51/88/38 52/87/38 56/89/38 55/90/38
f 55/90/39 56/89/39 54/91/39 53/92/39
f 53/92/40 54/91/40 50/93/40 49/94/40
f 51/95/41 55/90/41 53/92/41 49/96/41
f 56/89/42 52/97/42 50/98/42 54/91/42
o Wall.006_Cube.007
v -22.703972 0.035676 18.000156
v -22.703972 4.132039 18.000156
v -22.703972 0.035676 -18.000156
v -22.703972 4.132039 -18.000156
v -21.665390 0.035676 18.000156
v -21.665390 4.132039 18.000156
v -21.665390 0.035676 -18.000156
v -21.665390 4.132039 -18.000156
vt 0.375000 0.000000
vt 0.625000 0.000000
vt 0.625000 0.250000
vt 0.375000 0.250000
vt 0.625000 0.500000
vt 0.375000 0.500000
vt 0.625000 0.750000
vt 0.375000 0.750000
vt 0.625000 1.000000
vt 0.375000 1.000000
vt 0.125000 0.500000
vt 0.125000 0.750000
vt 0.875000 0.500000
vt 0.875000 0.750000
vn -1.0000 0.0000 0.0000
vn 0.0000 0.0000 -1.0000
vn 1.0000 0.0000 0.0000
vn 0.0000 0.0000 1.0000
vn 0.0000 -1.0000 0.0000
vn 0.0000 1.0000 0.0000
usemtl None
s off
f 57/99/43 58/100/43 60/101/43 59/102/43
f 59/102/44 60/101/44 64/103/44 63/104/44
f 63/104/45 64/103/45 62/105/45 61/106/45
f 61/106/46 62/105/46 58/107/46 57/108/46
f 59/109/47 63/104/47 61/106/47 57/110/47
f 64/103/48 60/111/48 58/112/48 62/105/48
o Wall.007_Cube.008
v 21.675713 0.035676 18.000156
v 21.675713 4.132039 18.000156
v 21.675713 0.035676 -18.000156
v 21.675713 4.132039 -18.000156
v 22.714294 0.035676 18.000156
v 22.714294 4.132039 18.000156
v 22.714294 0.035676 -18.000156
v 22.714294 4.132039 -18.000156
vt 0.375000 0.000000
vt 0.625000 0.000000
vt 0.625000 0.250000
vt 0.375000 0.250000
vt 0.625000 0.500000
vt 0.375000 0.500000
vt 0.625000 0.750000
vt 0.375000 0.750000
vt 0.625000 1.000000
vt 0.375000 1.000000
vt 0.125000 0.500000
vt 0.125000 0.750000
vt 0.875000 0.500000
vt 0.875000 0.750000
vn -1.0000 0.0000 0.0000
vn 0.0000 0.0000 -1.0000
vn 1.0000 0.0000 0.0000
vn 0.0000 0.0000 1.0000
vn 0.0000 -1.0000 0.0000
vn 0.0000 1.0000 0.0000
usemtl None
s off
f 65/113/49 66/114/49 68/115/49 67/116/49
f 67/116/50 68/115/50 72/117/50 71/118/50
f 71/118/51 72/117/51 70/119/51 69/120/51
f 69/120/52 70/119/52 66/121/52 65/122/52
f 67/123/53 71/118/53 69/120/53 65/124/53
f 72/117/54 68/125/54 66/126/54 70/119/54
o DoorWall_Cube.010
v 21.746788 0.035676 17.927868
v 21.746788 4.132039 17.927868
v -21.746788 0.035676 17.927870
v -21.746788 4.132039 17.927870
v 21.746788 0.035676 16.889284
v 21.746788 4.132039 16.889284
v -21.746788 0.035676 16.889286
v -21.746788 4.132039 16.889286
v -5.529091 4.132039 17.927870
v -5.529093 4.132039 16.889286
v -5.529091 0.035676 16.889286
v -5.529093 0.035676 17.927870
v -2.326261 4.132039 17.927868
v -2.326262 4.132039 16.889286
v -2.326256 0.035676 16.889286
v -2.326256 0.035676 17.927868
v -5.529091 3.838436 17.927870
v -5.529093 3.838437 16.889286
v -2.326260 3.838434 17.927868
v -2.326262 3.838435 16.889286
v -5.529093 0.857681 17.927870
v -5.529091 0.857681 16.889286
v -2.326257 0.857681 17.927868
v -2.326257 0.857681 16.889286
v 14.920892 0.035676 17.927868
v 14.920889 4.132039 17.927868
v 14.920888 0.035676 16.889284
v 14.920889 4.132039 16.889284
v 17.683558 0.035676 17.927868
v 17.683558 0.035676 16.889284
v 17.683559 4.132039 16.889284
v 17.683559 4.132039 17.927868
vt 0.375000 0.000000
vt 0.625000 0.000000
vt 0.625000 0.023355
vt 0.375000 0.023355
vt 0.375000 0.250000
vt 0.625000 0.250000
vt 0.625000 0.500000
vt 0.375000 0.500000
vt 0.625000 0.593219
vt 0.607082 0.593219
vt 0.425167 0.593219
vt 0.375000 0.593219
vt 0.375000 0.750000
vt 0.625000 0.750000
vt 0.625000 1.000000
vt 0.375000 1.000000
vt 0.125000 0.500000
vt 0.125000 0.593219
vt 0.875000 0.500000
vt 0.875000 0.593219
vt 0.607082 0.156781
vt 0.425167 0.156781
vt 0.375000 0.156781
vt 0.625000 0.156781
vt 0.375000 0.611629
vt 0.125000 0.611629
vt 0.875000 0.611629
vt 0.625000 0.611629
vt 0.425167 0.611629
vt 0.375000 0.138371
vt 0.425167 0.138371
vt 0.375000 0.710765
vt 0.125000 0.710765
vt 0.875000 0.710765
vt 0.625000 0.710765
vt 0.607081 0.611629
vt 0.607081 0.138371
vt 0.625000 0.138371
vt 0.375000 0.039235
vt 0.625000 0.039235
vt 0.625000 0.726645
vt 0.375000 0.726645
vt 0.125000 0.726645
vt 0.125000 0.750000
vt 0.875000 0.726645
vt 0.875000 0.750000
vn 0.0000 0.0000 1.0000
vn -1.0000 0.0000 0.0000
vn 0.0000 0.0000 -1.0000
vn 1.0000 0.0000 0.0000
vn 0.0000 -1.0000 0.0000
vn 0.0000 1.0000 0.0000
usemtl None
s off
f 73/127/55 74/128/55 104/129/55 101/130/55
f 75/131/56 76/132/56 80/133/56 79/134/56
f 79/134/57 80/133/57 82/135/57 90/136/57 94/137/57 83/138/57
f 77/139/58 78/140/58 74/141/58 73/142/58
f 75/143/59 79/134/59 83/138/59 84/144/59
f 80/133/60 76/145/60 81/146/60 82/135/60
f 94/137/58 90/136/58 89/147/58 93/148/58
f 84/149/55 93/148/55 89/147/55 81/150/55 76/132/55 75/131/55
f 84/144/59 83/138/59 87/151/59 88/152/59
f 82/135/60 81/146/60 85/153/60 86/154/60
f 83/138/57 94/137/57 96/155/57 87/151/57
f 88/156/55 95/157/55 93/148/55 84/149/55
f 88/152/59 87/151/59 99/158/59 97/159/59
f 86/154/60 85/153/60 98/160/60 100/161/60
f 87/151/57 96/155/57 92/162/57 86/154/57 100/161/57 99/158/57
f 89/147/55 91/163/55 85/164/55 81/150/55
f 92/162/57 90/136/57 82/135/57 86/154/57
f 96/155/60 94/137/60 93/148/60 95/157/60
f 90/136/59 92/162/59 91/163/59 89/147/59
f 92/162/56 96/155/56 95/157/56 91/163/56
f 97/165/55 98/166/55 85/164/55 91/163/55 95/157/55 88/156/55
f 103/167/56 102/168/56 101/130/56 104/129/56
f 101/169/59 102/168/59 77/139/59 73/170/59
f 103/167/60 104/171/60 74/172/60 78/140/60
f 99/158/58 100/161/58 98/166/58 97/165/58
f 102/168/57 103/167/57 78/140/57 77/139/57
o Wall.008_Cube.011
v 21.746788 0.035676 -16.872955
v 21.746788 4.132039 -16.872955
v 21.746788 0.035676 -17.911539
v 21.746788 4.132039 -17.911539
v -2.559394 4.132039 -16.872955
v -2.559394 0.035676 -17.911537
v -2.559401 4.132039 -17.911537
v -2.559401 0.035676 -16.872955
v 0.216844 4.132039 -16.872955
v 0.216845 4.132039 -17.911537
v 0.216844 0.035676 -17.911537
v 0.216846 0.035676 -16.872955
v -2.559400 3.793284 -17.911537
v 0.216845 3.793283 -17.911537
v -2.559395 3.793284 -16.872955
v 0.216844 3.793283 -16.872955
v -2.559396 1.164021 -17.911537
v 0.216845 1.164021 -17.911537
v -2.559399 1.164020 -16.872955
v 0.216845 1.164020 -16.872955
v 13.823405 0.035676 -17.911539
v 13.823405 4.132039 -17.911539
v 13.823405 4.132039 -16.872955
v 13.823405 0.035676 -16.872955
v 16.991587 4.132039 -16.872955
v 16.991587 4.132039 -17.911539
v 16.991589 0.035676 -16.872955
v 16.991589 0.035676 -17.911539
v 13.823405 3.841472 -17.911539
v 16.991587 3.841472 -16.872955
v 16.991587 3.841472 -17.911539
v 13.823405 3.841472 -16.872955
v 13.823405 0.869260 -17.911539
v 16.991589 0.869258 -16.872955
v 16.991589 0.869258 -17.911539
v 13.823405 0.869259 -16.872955
v -21.697388 4.132039 -17.911537
v -21.697382 0.035676 -17.911537
v -21.697388 0.035676 -16.872953
v -21.697382 4.132039 -16.872953
vt 0.375000 0.000000
vt 0.625000 0.000000
vt 0.625000 0.027333
vt 0.607267 0.027333
vt 0.425873 0.027333
vt 0.375000 0.027333
vt 0.000000 0.000000
vt 0.000000 0.000000
vt 0.000000 0.000000
vt 0.000000 0.000000
vt 0.375000 0.750000
vt 0.625000 0.750000
vt 0.625000 1.000000
vt 0.375000 1.000000
vt 0.375000 0.610289
vt 0.443863 0.610289
vt 0.443863 0.626246
vt 0.375000 0.626246
vt 0.125000 0.610289
vt 0.125000 0.626246
vt 0.625000 0.610289
vt 0.875000 0.610289
vt 0.875000 0.626246
vt 0.625000 0.626246
vt 0.375000 0.704457
vt 0.125000 0.704457
vt 0.875000 0.704457
vt 0.625000 0.704457
vt 0.604326 0.626246
vt 0.607267 0.704457
vt 0.425873 0.704457
vt 0.375000 0.123754
vt 0.443863 0.123754
vt 0.443863 0.139711
vt 0.375000 0.139711
vt 0.604326 0.139711
vt 0.604326 0.123754
vt 0.625000 0.123754
vt 0.625000 0.139711
vt 0.604326 0.610289
vt 0.425873 0.722667
vt 0.375000 0.722667
vt 0.125000 0.722667
vt 0.375000 0.045543
vt 0.425873 0.045543
vt 0.607267 0.045543
vt 0.625000 0.045543
vt 0.875000 0.722667
vt 0.625000 0.722667
vt 0.875000 0.750000
vt 0.607267 0.722667
vt 0.125000 0.750000
vt 0.875000 0.610289
vt 0.625000 0.610289
vt 0.375000 0.610289
vt 0.125000 0.610289
vt 0.000000 0.000000
vt 0.000000 0.000000
vt 0.000000 0.000000
vt 0.000000 0.000000
vn 0.0000 0.0000 1.0000
vn 1.0000 0.0000 0.0000
vn 0.0000 0.0000 -1.0000
vn 0.0000 -1.0000 0.0000
vn 0.0000 1.0000 -0.0000
vn -1.0000 0.0000 0.0000
usemtl None
s off
f 105/173/61 106/174/61 129/175/61 134/176/61 138/177/61 131/178/61
f 112/179/61 109/180/61 144/181/61 143/182/61
f 107/183/62 108/184/62 106/185/62 105/186/62
f 110/187/63 121/188/63 122/189/63 115/190/63
f 112/191/64 110/187/64 115/190/64 116/192/64
f 111/193/65 109/194/65 113/195/65 114/196/65
f 116/192/64 115/190/64 125/197/64 128/198/64
f 114/196/65 113/195/65 127/199/65 126/200/65
f 115/190/63 122/189/63 118/201/63 114/196/63 126/200/63 133/202/63 137/203/63 125/197/63
f 116/204/61 124/205/61 123/206/61 112/207/61
f 119/208/61 120/209/61 113/210/61 109/211/61
f 118/201/63 117/212/63 111/193/63 114/196/63
f 125/197/63 137/203/63 139/213/63 132/214/63
f 128/198/64 125/197/64 132/214/64 131/215/64
f 128/216/61 140/217/61 136/218/61 127/219/61 113/210/61 120/209/61 124/205/61 116/204/61
f 126/200/65 127/199/65 129/220/65 130/221/65
f 130/221/65 129/220/65 106/222/65 108/184/65
f 132/214/63 139/213/63 135/223/63 130/221/63 108/184/63 107/183/63
f 131/178/61 138/177/61 140/217/61 128/216/61
f 131/215/64 132/214/64 107/183/64 105/224/64
f 136/218/61 134/176/61 129/175/61 127/219/61
f 135/223/63 133/202/63 126/200/63 130/221/63
f 144/225/66 141/226/66 142/227/66 143/228/66
f 109/194/65 111/193/65 141/226/65 144/225/65
f 111/229/63 110/230/63 142/231/63 141/232/63
f 110/187/64 112/191/64 143/228/64 142/227/64
f 124/205/66 120/209/66 118/201/66 122/189/66
f 116/204/66 124/205/66 122/189/66 115/190/66
f 120/209/66 113/210/66 114/196/66 118/201/66
f 109/180/62 112/179/62 110/230/62 111/229/62
f 117/212/64 118/201/64 120/209/64 119/208/64
f 122/189/65 121/188/65 123/206/65 124/205/65
f 127/219/62 136/218/62 133/202/62 126/200/62
f 136/218/62 140/217/62 137/203/62 133/202/62
f 140/217/62 128/216/62 125/197/62 137/203/62
f 131/178/66 138/177/66 139/213/66 132/214/66
f 138/177/66 134/176/66 135/223/66 139/213/66
f 134/176/66 129/175/66 130/221/66 135/223/66
f 133/202/64 135/223/64 134/176/64 136/218/64
f 139/213/65 137/203/65 140/217/65 138/177/65
